<svg width="63" height="60" viewBox="0 0 63 60" fill="none" xmlns="http://www.w3.org/2000/svg">
<path d="M49.1322 7.80521C42.676 7.80521 37.4243 13.0581 37.4243 19.513C37.4243 20.2311 38.0058 20.8139 38.7252 20.8139C39.4446 20.8139 40.0261 20.2311 40.0261 19.513C40.0261 14.4917 44.1121 10.4069 49.1322 10.4069C54.1522 10.4069 58.2383 14.4917 58.2383 19.513C58.2383 24.5344 54.1522 28.6191 49.1322 28.6191H2.30087C1.58279 28.6191 1 29.2019 1 29.92C1 30.6381 1.58279 31.2209 2.30087 31.2209H49.1322C55.5884 31.2209 60.84 25.9679 60.84 19.513C60.84 13.0581 55.5884 7.80521 49.1322 7.80521Z" fill="#3B82F6" stroke="#3B82F6" stroke-width="1.36"/>
<path d="M24.4157 5.20349C19.3943 5.20349 15.3096 9.28822 15.3096 14.3096C15.3096 15.0277 15.8924 15.6104 16.6104 15.6104C17.3285 15.6104 17.9113 15.0277 17.9113 14.3096C17.9113 10.7231 20.8292 7.80523 24.4157 7.80523C28.0021 7.80523 30.92 10.7231 30.92 14.3096C30.92 17.8961 28.0021 20.8139 24.4157 20.8139H2.30087C1.58279 20.8139 1 21.3967 1 22.1148C1 22.8329 1.58279 23.4157 2.30087 23.4157H24.4157C29.437 23.4157 33.5217 19.3309 33.5217 14.3096C33.5217 9.28822 29.437 5.20349 24.4157 5.20349Z" fill="#3B82F6" stroke="#3B82F6" stroke-width="1.36"/>
<path d="M46.5304 36.4243H2.30087C1.58279 36.4243 1 37.0071 1 37.7252C1 38.4433 1.58279 39.0261 2.30087 39.0261H46.5304C50.1169 39.0261 53.0348 41.9439 53.0348 45.5304C53.0348 49.1169 50.1169 52.0348 46.5304 52.0348C42.9439 52.0348 40.0261 49.1169 40.0261 45.5304C40.0261 44.8123 39.4446 44.2296 38.7252 44.2296C38.0058 44.2296 37.4243 44.8123 37.4243 45.5304C37.4243 50.5518 41.5104 54.6365 46.5304 54.6365C51.5505 54.6365 55.6365 50.5518 55.6365 45.5304C55.6365 40.5091 51.5505 36.4243 46.5304 36.4243Z" fill="#3B82F6" stroke="#3B82F6" stroke-width="1.36"/>
</svg>
