<svg width="199" height="32" viewBox="0 0 199 32" fill="none" xmlns="http://www.w3.org/2000/svg">
<path d="M40.5717 25.5172V5.8457H44.2309V14.2095H53.0625V5.8457H56.7491V25.5172H53.0625V17.1534H44.2309V25.5172H40.5717ZM66.3261 25.7924C64.1801 25.7924 62.4285 25.1321 61.0712 23.8115C59.7139 22.4909 59.0353 20.7117 59.0353 18.474V18.2539C59.0353 16.0529 59.7047 14.2646 61.0437 12.8889C62.401 11.5133 64.1159 10.8255 66.1886 10.8255C68.1328 10.8255 69.7469 11.4308 71.0308 12.6413C72.3331 13.8519 72.9842 15.6677 72.9842 18.0888V19.0518H62.4468C62.5019 20.4274 62.8687 21.4821 63.5473 22.2157C64.226 22.9494 65.1798 23.3162 66.4087 23.3162C68.3529 23.3162 69.4534 22.5826 69.7102 21.1152H72.9292C72.6907 22.6192 71.9937 23.7748 70.8382 24.5818C69.6827 25.3889 68.1786 25.7924 66.3261 25.7924ZM62.5019 16.8232H69.6827C69.5176 14.4388 68.3529 13.2466 66.1886 13.2466C65.1981 13.2466 64.3727 13.5676 63.7124 14.2095C63.0705 14.8332 62.6669 15.7044 62.5019 16.8232ZM79.0359 25.7924C77.6236 25.7924 76.468 25.4439 75.5693 24.7469C74.6706 24.0316 74.2212 22.9586 74.2212 21.5279C74.2212 19.9505 74.8907 18.795 76.2296 18.0613C77.5686 17.3276 79.3569 16.9608 81.5946 16.9608H83.3829V16.218C83.3829 15.2275 83.1811 14.503 82.7776 14.0445C82.3924 13.5676 81.723 13.3291 80.7692 13.3291C79.1001 13.3291 78.183 14.0812 78.0179 15.5852H74.7989C74.9273 13.9894 75.551 12.7972 76.6698 12.0085C77.807 11.2198 79.2377 10.8255 80.9618 10.8255C84.7952 10.8255 86.7119 12.5771 86.7119 16.0804V25.5172H83.4379V23.7564C82.4108 25.1137 80.9434 25.7924 79.0359 25.7924ZM79.8338 23.3988C80.8792 23.3988 81.7321 23.142 82.3924 22.6284C83.0527 22.0965 83.3829 21.3812 83.3829 20.4824V19.0518H81.6771C78.9075 19.0518 77.5227 19.8313 77.5227 21.3903C77.5227 22.7293 78.2931 23.3988 79.8338 23.3988ZM95.0947 25.7924C93.2238 25.7924 91.7015 25.1596 90.5276 23.894C89.3537 22.6101 88.7668 20.8309 88.7668 18.5565V18.3364C88.7668 16.0621 89.372 14.2462 90.5826 12.8889C91.7932 11.5133 93.343 10.8255 95.2322 10.8255C97.3599 10.8255 98.8914 11.66 99.8269 13.3291V4.47007H103.156V25.5172H99.8269V23.0961C99.4233 23.8481 98.7814 24.4901 97.901 25.022C97.0389 25.5356 96.1035 25.7924 95.0947 25.7924ZM95.9201 23.1512C97.1306 23.1512 98.1027 22.7476 98.8364 21.9406C99.5701 21.1336 99.9369 19.9505 99.9369 18.3915V18.1714C99.9369 16.6123 99.5976 15.4384 98.9189 14.6497C98.2403 13.8427 97.2865 13.4392 96.0576 13.4392C94.8287 13.4392 93.875 13.8611 93.1963 14.7048C92.5177 15.5302 92.1783 16.7132 92.1783 18.2539V18.474C92.1783 19.9964 92.5177 21.1611 93.1963 21.9681C93.8933 22.7568 94.8012 23.1512 95.9201 23.1512ZM109.259 25.5172L104.857 11.1281H108.406L111.267 21.5279L114.321 11.1281H117.1L119.906 21.5279L122.905 11.1281H126.151L121.639 25.5172H118.255L115.586 15.8328L112.67 25.5172H109.259ZM127.952 25.5172V11.1281H131.281V25.5172H127.952ZM130.978 8.21179C130.593 8.57862 130.126 8.76204 129.575 8.76204C129.025 8.76204 128.557 8.57862 128.172 8.21179C127.787 7.84495 127.594 7.39558 127.594 6.86367C127.594 6.31342 127.787 5.85487 128.172 5.48804C128.557 5.1212 129.025 4.93778 129.575 4.93778C130.126 4.93778 130.593 5.1212 130.978 5.48804C131.364 5.85487 131.556 6.31342 131.556 6.86367C131.556 7.39558 131.364 7.84495 130.978 8.21179ZM134.513 25.5172V11.1281H137.842V13.4117C138.209 12.6597 138.796 12.0452 139.603 11.5683C140.41 11.0731 141.373 10.8255 142.492 10.8255C144.014 10.8255 145.216 11.2932 146.096 12.2286C146.977 13.1457 147.417 14.558 147.417 16.4656V25.5172H144.088V16.7682C144.088 15.6861 143.859 14.8882 143.4 14.3746C142.941 13.8611 142.217 13.6043 141.227 13.6043C140.236 13.6043 139.42 13.9069 138.778 14.5122C138.154 15.0991 137.842 15.9428 137.842 17.0433V25.5172H134.513ZM155.819 25.7924C153.948 25.7924 152.426 25.1596 151.252 23.894C150.078 22.6101 149.491 20.8309 149.491 18.5565V18.3364C149.491 16.0621 150.097 14.2462 151.307 12.8889C152.518 11.5133 154.068 10.8255 155.957 10.8255C158.084 10.8255 159.616 11.66 160.551 13.3291V4.47007H163.88V25.5172H160.551V23.0961C160.148 23.8481 159.506 24.4901 158.625 25.022C157.763 25.5356 156.828 25.7924 155.819 25.7924ZM156.645 23.1512C157.855 23.1512 158.827 22.7476 159.561 21.9406C160.295 21.1336 160.661 19.9505 160.661 18.3915V18.1714C160.661 16.6123 160.322 15.4384 159.643 14.6497C158.965 13.8427 158.011 13.4392 156.782 13.4392C155.553 13.4392 154.599 13.8611 153.921 14.7048C153.242 15.5302 152.903 16.7132 152.903 18.2539V18.474C152.903 19.9964 153.242 21.1611 153.921 21.9681C154.618 22.7568 155.526 23.1512 156.645 23.1512Z" fill="#334155"/>
<path d="M25.3427 5.46469C22.0775 5.46469 19.4215 8.12134 19.4215 11.3859C19.4215 11.7491 19.7156 12.0438 20.0794 12.0438C20.4432 12.0438 20.7373 11.7491 20.7373 11.3859C20.7373 8.84635 22.8038 6.78051 25.3427 6.78051C27.8816 6.78051 29.9481 8.84635 29.9481 11.3859C29.9481 13.9254 27.8816 15.9913 25.3427 15.9913H1.65791C1.29474 15.9913 1 16.286 1 16.6492C1 17.0123 1.29474 17.3071 1.65791 17.3071H25.3427C28.6079 17.3071 31.2639 14.6504 31.2639 11.3859C31.2639 8.12134 28.6079 5.46469 25.3427 5.46469Z" fill="#3B82F6" stroke="#3B82F6" stroke-width="0.687816"/>
<path d="M12.8424 4.1489C10.3029 4.1489 8.23702 6.21474 8.23702 8.75427C8.23702 9.11744 8.53177 9.41218 8.89493 9.41218C9.2581 9.41218 9.55284 9.11744 9.55284 8.75427C9.55284 6.94041 11.0285 5.46472 12.8424 5.46472C14.6563 5.46472 16.132 6.94041 16.132 8.75427C16.132 10.5681 14.6563 12.0438 12.8424 12.0438H1.65791C1.29474 12.0438 1 12.3386 1 12.7017C1 13.0649 1.29474 13.3597 1.65791 13.3597H12.8424C15.3819 13.3597 17.4478 11.2938 17.4478 8.75427C17.4478 6.21474 15.3819 4.1489 12.8424 4.1489Z" fill="#3B82F6" stroke="#3B82F6" stroke-width="0.687816"/>
<path d="M24.0269 19.9388H1.65791C1.29474 19.9388 1 20.2335 1 20.5967C1 20.9598 1.29474 21.2546 1.65791 21.2546H24.0269C25.8407 21.2546 27.3164 22.7303 27.3164 24.5441C27.3164 26.358 25.8407 27.8337 24.0269 27.8337C22.213 27.8337 20.7373 26.358 20.7373 24.5441C20.7373 24.181 20.4432 23.8862 20.0794 23.8862C19.7156 23.8862 19.4215 24.181 19.4215 24.5441C19.4215 27.0837 21.488 29.1495 24.0269 29.1495C26.5658 29.1495 28.6323 27.0837 28.6323 24.5441C28.6323 22.0046 26.5658 19.9388 24.0269 19.9388Z" fill="#3B82F6" stroke="#3B82F6" stroke-width="0.687816"/>
<rect x="170.931" y="0.758621" width="27.3103" height="29.8391" rx="4.29885" stroke="#1E293B" stroke-width="1.51724"/>
<path d="M181.26 23.2662C179.485 23.2662 178.117 22.7928 177.157 21.8461C176.197 20.8862 175.717 19.5055 175.717 17.704V8.96621H178.36V17.5068C178.36 18.8086 178.584 19.7422 179.031 20.3076C179.491 20.873 180.241 21.1557 181.28 21.1557C182.332 21.1557 183.101 20.873 183.587 20.3076C184.087 19.729 184.337 18.7362 184.337 17.3292V8.96621H186.98V17.5462C186.98 19.4003 186.487 20.8204 185.501 21.8066C184.528 22.7797 183.114 23.2662 181.26 23.2662ZM190.168 23.069V8.96621H192.811V23.069H190.168Z" fill="#334155"/>
</svg>
